<svg xmlns="http://www.w3.org/2000/svg" width="53.349" height="37.208" viewBox="0 0 53.349 37.208">
  <g id="noun_Car_1498502" transform="translate(-0.102 -0.25)">
    <g id="Group_34" data-name="Group 34" transform="translate(0.102 0.25)">
      <path id="Path_68" data-name="Path 68" d="M11.08,34.678v1.831a.97.97,0,0,1-.949.949H1.655a.927.927,0,0,1-.949-.949V31.152a40.357,40.357,0,0,1,0-13.086A5.9,5.9,0,0,1,3.079,14.2c-.678-.339-1.424-.746-2.1-1.085-1.017-.949-1.356-1.831.136-2.509A8.754,8.754,0,0,1,6.13,9.861c.339.407.61.814.949,1.22C8.164,8.777,9.317,6.471,10.4,4.234a6.151,6.151,0,0,1,4-2.916,71.835,71.835,0,0,1,24.681,0,6.12,6.12,0,0,1,4.068,2.916c1.085,2.238,2.238,4.543,3.322,6.848.339-.407.61-.814.949-1.22a8.754,8.754,0,0,1,5.018.746c1.492.678,1.153,1.56.136,2.509-.678.339-1.424.746-2.1,1.085a5.9,5.9,0,0,1,2.373,3.865,40.357,40.357,0,0,1,0,13.086v5.357a.927.927,0,0,1-.949.949H43.423a.927.927,0,0,1-.949-.949V34.678A186.4,186.4,0,0,0,11.08,34.678Zm11.934-9.493H30.54c.2,0,.339.271.339.678,0,.339-.136.61-.339.61H23.014c-.2,0-.339-.271-.339-.61C22.675,25.457,22.81,25.186,23.014,25.186ZM20.98,22.88H32.574a.6.6,0,0,1,.542.61.62.62,0,0,1-.542.678H20.98a.62.62,0,0,1-.542-.678A.6.6,0,0,1,20.98,22.88Zm-1.017-2.373H33.591a.678.678,0,0,1,0,1.356H19.962a.678.678,0,1,1,0-1.356ZM16.03,3.759a3.442,3.442,0,0,0-3.051,1.7c-1.085,2.1-2.17,4.272-3.255,6.374a238.575,238.575,0,0,1,34.106,0c-1.085-2.1-2.17-4.272-3.255-6.374a3.442,3.442,0,0,0-3.051-1.7A81.472,81.472,0,0,0,16.03,3.759ZM47.152,28.237H40.847a.783.783,0,0,0-.814.814.841.841,0,0,0,.814.881h6.306a.888.888,0,0,0,.814-.881A.824.824,0,0,0,47.152,28.237ZM41.8,25.66c2.1.068,4.475.068,6.577.068,1.831-.678,2.441-3.8,1.424-4-2.17.2-4.407.407-6.509.61C42.135,23.084,40.982,24.1,41.8,25.66ZM6.4,28.237h6.306a.783.783,0,0,1,.814.814.841.841,0,0,1-.814.881H6.4a.888.888,0,0,1-.814-.881A.824.824,0,0,1,6.4,28.237Zm5.357-2.577c-2.1.068-4.475.068-6.577.068-1.831-.678-2.441-3.8-1.424-4,2.17.2,4.407.407,6.509.61C11.419,23.084,12.572,24.1,11.758,25.66Z" transform="translate(-0.102 -0.25)" fill="#4e4e4e" fill-rule="evenodd"/>
      <rect id="Rectangle_214" data-name="Rectangle 214" width="5.602" height="1.995" rx="0.997" transform="translate(23.861 3.577)" fill="#4e4e4e"/>
    </g>
  </g>
</svg>
