<svg xmlns="http://www.w3.org/2000/svg" width="22.971" height="28.943" viewBox="0 0 22.971 28.943">
  <g id="noun_password_2788762" transform="translate(-12.3 -2.5)">
    <g id="Group_40" data-name="Group 40" transform="translate(12.3 2.5)">
      <path id="Path_101" data-name="Path 101" d="M32.255,21.694a11.472,11.472,0,1,0-16.939.03,2.789,2.789,0,0,0-2.772,2.8V28.64a2.8,2.8,0,0,0,2.8,2.8H32.194a2.8,2.8,0,0,0,2.8-2.8V24.527A2.79,2.79,0,0,0,32.255,21.694ZM22.171,16.24H25.4a3.944,3.944,0,0,1,3.9,3.443l.152,2.011H18.119l.152-2.011A3.944,3.944,0,0,1,22.171,16.24ZM20.5,11.213a3.29,3.29,0,1,1,3.29,3.29A3.3,3.3,0,0,1,20.5,11.213ZM23.786,3.9a10.061,10.061,0,0,1,7.038,17.244L30.7,19.561v-.03a5.323,5.323,0,0,0-4.113-4.57,4.722,4.722,0,1,0-5.606,0,5.362,5.362,0,0,0-4.113,4.6l-.122,1.584A10.061,10.061,0,0,1,23.786,3.9ZM33.626,28.64a1.418,1.418,0,0,1-1.4,1.4H15.347a1.418,1.418,0,0,1-1.4-1.4V24.527a1.418,1.418,0,0,1,1.4-1.4H32.194a1.418,1.418,0,0,1,1.4,1.4V28.64Z" transform="translate(-12.3 -2.5)" fill="#fff"/>
      <path id="Path_102" data-name="Path 102" d="M27.569,74.831a.717.717,0,0,0-1.005,0l-.914.914-.914-.914a.711.711,0,0,0-1.005,1.005l.914.914-.914.914a.717.717,0,0,0,0,1.005.649.649,0,0,0,.487.213.606.606,0,0,0,.487-.213l.914-.914.914.914a.649.649,0,0,0,.487.213.606.606,0,0,0,.487-.213.717.717,0,0,0,0-1.005l-.914-.914.914-.914A.67.67,0,0,0,27.569,74.831Z" transform="translate(-20.105 -52.651)" fill="#fff"/>
      <path id="Path_103" data-name="Path 103" d="M46.969,74.831a.717.717,0,0,0-1.005,0l-.914.914-.914-.914a.711.711,0,0,0-1.005,1.005l.914.914-.914.914a.717.717,0,0,0,0,1.005.649.649,0,0,0,.487.213.606.606,0,0,0,.487-.213l.914-.914.914.914a.649.649,0,0,0,.487.213.606.606,0,0,0,.487-.213.717.717,0,0,0,0-1.005l-.914-.914.914-.914A.631.631,0,0,0,46.969,74.831Z" transform="translate(-33.595 -52.651)" fill="#fff"/>
      <path id="Path_104" data-name="Path 104" d="M66.469,74.831a.717.717,0,0,0-1.005,0l-.914.914-.914-.914a.711.711,0,0,0-1.005,1.005l.914.914-.914.914a.717.717,0,0,0,0,1.005.649.649,0,0,0,.487.213.606.606,0,0,0,.487-.213l.914-.914.914.914a.649.649,0,0,0,.487.213.606.606,0,0,0,.487-.213.717.717,0,0,0,0-1.005l-.914-.914.914-.914A.67.67,0,0,0,66.469,74.831Z" transform="translate(-47.154 -52.651)" fill="#fff"/>
    </g>
  </g>
</svg>
