<svg xmlns="http://www.w3.org/2000/svg" width="41.505" height="38.91" viewBox="0 0 41.505 38.91">
  <g id="noun_confirm_2951102" transform="translate(0)">
    <g id="Group_42" data-name="Group 42" transform="translate(0 0)">
      <path id="Path_110" data-name="Path 110" d="M82.789,34.714a2.688,2.688,0,0,1-2.675,2.675H57.6a2.688,2.688,0,0,1-2.675-2.675V12.2A2.688,2.688,0,0,1,57.6,9.522H75.369a47.3,47.3,0,0,1,7.506-5A7.473,7.473,0,0,0,80.114,4H57.6a8.192,8.192,0,0,0-8.2,8.2V34.714a8.192,8.192,0,0,0,8.2,8.2H80.114a8.192,8.192,0,0,0,8.2-8.2V17.459a52.073,52.073,0,0,0-5.522,6.126Z" transform="translate(-49.4 -4)" fill="#4bff00"/>
      <path id="Path_111" data-name="Path 111" d="M90.823,7.289c-5.78,1.9-13.028,6.9-19.757,15.53l-3.969-4.4a1.569,1.569,0,0,0-2.329,0L61.834,21.7a1.51,1.51,0,0,0,.086,2.157l9.059,8.628a1.646,1.646,0,0,0,2.5-.345c4.745-8.714,9.922-15.185,18.636-22.6A1.325,1.325,0,0,0,90.823,7.289Z" transform="translate(-51.05 -4.442)" fill="#4bff00"/>
    </g>
  </g>
</svg>
