<svg xmlns="http://www.w3.org/2000/svg" width="42" height="42" viewBox="0 0 42 42">
  <g id="Group_44" data-name="Group 44" transform="translate(-455 -563)">
    <circle id="Ellipse_3" data-name="Ellipse 3" cx="21" cy="21" r="21" transform="translate(455 563)" fill="#fff"/>
    <g id="noun_form_2034112" transform="translate(466.018 574)">
      <g id="Group_25" data-name="Group 25" transform="translate(0 0)">
        <g id="Group_24" data-name="Group 24">
          <g id="Group_23" data-name="Group 23">
            <path id="Path_54" data-name="Path 54" d="M70.7,56.43l4.184,4.185-10.575,10.5-4.185-4.185Zm7.3-1.065L76.18,53.539a1.885,1.885,0,0,0-2.587,0l-1.826,1.75,4.185,4.185,2.054-2.054A1.52,1.52,0,0,0,78.006,55.365ZM58,72.787a.48.48,0,0,0,.609.533l4.641-1.141-4.185-4.185Z" transform="translate(-57.985 -53.025)" fill="#656565"/>
          </g>
        </g>
      </g>
    </g>
  </g>
</svg>
