<svg xmlns="http://www.w3.org/2000/svg" width="42" height="42" viewBox="0 0 42 42">
  <g id="Group_45" data-name="Group 45" transform="translate(-629 -563)">
    <circle id="Ellipse_4" data-name="Ellipse 4" cx="21" cy="21" r="21" transform="translate(629 563)" fill="#fff"/>
    <g id="noun_edit_3460622" transform="translate(638.883 572)">
      <path id="Path_57" data-name="Path 57" d="M28.717,9.192,27.4,10.509,23.67,6.758l1.317-1.317a1.462,1.462,0,0,1,2.076,0l1.654,1.673A1.478,1.478,0,0,1,28.717,9.192ZM16.337,21.635,12.6,17.882l10.441-10.5,3.735,3.761Zm-.619.724-4.425.7.69-4.449Zm-4.694-9.106a2.7,2.7,0,0,0-2.705,2.71v7.557a2.7,2.7,0,0,0,2.705,2.71H18.17a2.705,2.705,0,0,0,2.7-2.71V19.209l2.4-2.41V23.84a4.86,4.86,0,0,1-4.849,4.873H10.777A4.86,4.86,0,0,1,5.93,23.84V15.645a4.86,4.86,0,0,1,4.849-4.873h6.848l-2.46,2.481Z" transform="translate(-5.93 -5.009)" fill="#656565" fill-rule="evenodd"/>
    </g>
  </g>
</svg>
