<svg xmlns="http://www.w3.org/2000/svg" width="22.971" height="22.868" viewBox="0 0 22.971 22.868">
  <g id="noun_messages_699934" transform="translate(-4 -4.207)">
    <g id="Group_43" data-name="Group 43" transform="translate(4 4.207)">
      <path id="Path_112" data-name="Path 112" d="M24.724,956.569a2.259,2.259,0,0,1,2.247,2.247V968.8a2.259,2.259,0,0,1-2.247,2.247H23.311l.414,4.167a.749.749,0,0,1-1.28.609l-4.775-4.775H16.5v3.987a1.876,1.876,0,0,1-1.841,1.88l-4.354.023-2.544,2.3a.747.747,0,0,1-1.248-.632l.164-1.67H5.849A1.883,1.883,0,0,1,4,975.054v-7.1a1.88,1.88,0,0,1,1.841-1.888H7.995v-7.249a2.259,2.259,0,0,1,2.247-2.247H24.724Zm0,1.5H10.242a.732.732,0,0,0-.749.749v7.241l5.157-.008a1.874,1.874,0,0,1,1.849,1.88v1.623h1.482a.749.749,0,0,1,.531.218l3.5,3.5-.289-2.9a.749.749,0,0,1,.749-.819h2.247a.731.731,0,0,0,.749-.749v-9.987a.732.732,0,0,0-.749-.749Zm-10.073,9.48-8.8.015a.357.357,0,0,0-.351.39v7.1a.358.358,0,0,0,.351.39H7.511a.781.781,0,0,1,.741.827l-.055.554,1.311-1.186a.757.757,0,0,1,.5-.2l4.643-.023a.349.349,0,0,0,.351-.382v-7.108a.352.352,0,0,0-.351-.382Z" transform="translate(-4 -956.569)" fill="#fff"/>
    </g>
  </g>
</svg>
