<svg xmlns="http://www.w3.org/2000/svg" width="20.667" height="20.667" viewBox="0 0 20.667 20.667">
  <g id="noun_Home_3989656" transform="translate(-2 -2)">
    <path id="Path_5" data-name="Path 5" d="M21.929,22.667H15.286a.738.738,0,0,1-.738-.738V13.81H10.119v8.119a.738.738,0,0,1-.738.738H2.738A.738.738,0,0,1,2,21.929V10.857a.738.738,0,0,1,.261-.563l9.6-8.119a.738.738,0,0,1,.954,0l9.6,8.119a.738.738,0,0,1,.261.563V21.929A.738.738,0,0,1,21.929,22.667Zm-5.9-1.476h5.167V11.2L12.333,3.705,3.476,11.2v9.991H8.643V13.072a.738.738,0,0,1,.738-.738h5.9a.738.738,0,0,1,.738.738Z" fill="#fff"/>
  </g>
</svg>
