<svg xmlns="http://www.w3.org/2000/svg" width="29.775" height="32.001" viewBox="0 0 29.775 32.001">
  <g id="noun_Printer_2245487" transform="translate(-6.613 -5.5)">
    <path id="Path_105" data-name="Path 105" d="M33.617,13.758H31.8V7.16a1.662,1.662,0,0,0-1.66-1.66H12.855A1.661,1.661,0,0,0,11.2,7.16v6.6H9.383a2.77,2.77,0,0,0-2.77,2.77V29.477a2.77,2.77,0,0,0,2.77,2.77H11.2v3.594a1.661,1.661,0,0,0,1.658,1.66H30.144a1.662,1.662,0,0,0,1.66-1.66V32.247h1.813a2.771,2.771,0,0,0,2.771-2.77V16.527A2.77,2.77,0,0,0,33.617,13.758ZM12.7,7.16A.159.159,0,0,1,12.855,7H30.144a.158.158,0,0,1,.158.158v6.6H12.7Zm15.1,11.1a1.5,1.5,0,1,1-1.5-1.5A1.5,1.5,0,0,1,27.8,18.262ZM30.145,36H12.855a.159.159,0,0,1-.158-.158V29.179A3.98,3.98,0,0,1,15.412,28.1H27.588A3.972,3.972,0,0,1,30.3,29.179V35.84A.158.158,0,0,1,30.145,36Zm.988-16.236a1.5,1.5,0,1,1,1.5-1.5A1.5,1.5,0,0,1,31.133,19.762Z" fill="#4bff00"/>
    <rect id="Rectangle_307" data-name="Rectangle 307" width="14.762" height="0.86" transform="translate(14.119 30.036)" fill="#4bff00"/>
    <rect id="Rectangle_308" data-name="Rectangle 308" width="14.762" height="0.859" transform="translate(14.119 31.815)" fill="#4bff00"/>
    <rect id="Rectangle_309" data-name="Rectangle 309" width="14.762" height="0.86" transform="translate(14.119 33.594)" fill="#4bff00"/>
  </g>
</svg>
