<svg xmlns="http://www.w3.org/2000/svg" width="30.421" height="30.412" viewBox="0 0 30.421 30.412">
  <g id="noun_add_688807" transform="translate(-32.785 -11.785)">
    <path id="Path_43" data-name="Path 43" d="M58.751,37.751a15.211,15.211,0,1,0-21.511,0,15.211,15.211,0,0,0,21.511,0ZM43.143,25.192H46.15V22.185a1.821,1.821,0,0,1,3.642,0v3.007H52.8a1.821,1.821,0,0,1,0,3.642H49.792v3.007a1.821,1.821,0,0,1-1.821,1.821h0a1.821,1.821,0,0,1-1.821-1.821V28.834H43.143a1.821,1.821,0,0,1,0-3.642Z" transform="translate(0 0)"/>
  </g>
</svg>
