<svg id="noun_Calendar_2082140" xmlns="http://www.w3.org/2000/svg" width="25.75" height="25.75" viewBox="0 0 25.75 25.75">
  <g id="Group_9" data-name="Group 9">
    <path id="Path_16" data-name="Path 16" d="M22.716,2H21.532V0H19.46V2H6.216V0h-2V2H3.034A3,3,0,0,0,0,5.032V22.716A3.047,3.047,0,0,0,3.034,25.75H22.716a3.1,3.1,0,0,0,3.034-3.034V5.032A3.047,3.047,0,0,0,22.716,2Zm.962,20.718a.979.979,0,0,1-.962.962H3.034A1,1,0,0,1,2,22.716V9.471h21.68Zm0-15.317H2V5.032A1.012,1.012,0,0,1,3.034,4H4.218v2h2V4H19.46v2h2.072V4h1.184a1,1,0,0,1,.962,1.036Z" fill="gray" fill-rule="evenodd"/>
    <rect id="Rectangle_11" data-name="Rectangle 11" width="2.01" height="2.01" transform="translate(5.846 11.543)" fill="gray"/>
    <rect id="Rectangle_12" data-name="Rectangle 12" width="2.01" height="2.01" transform="translate(9.841 11.543)" fill="gray"/>
    <rect id="Rectangle_13" data-name="Rectangle 13" width="2.01" height="2.01" transform="translate(13.837 11.543)" fill="gray"/>
    <rect id="Rectangle_14" data-name="Rectangle 14" width="2.01" height="2.01" transform="translate(17.907 11.543)" fill="gray"/>
    <rect id="Rectangle_15" data-name="Rectangle 15" width="2.01" height="2.01" transform="translate(5.846 15.539)" fill="gray"/>
    <rect id="Rectangle_16" data-name="Rectangle 16" width="2.01" height="2.01" transform="translate(9.841 15.539)" fill="gray"/>
    <rect id="Rectangle_17" data-name="Rectangle 17" width="2.01" height="2.01" transform="translate(13.837 15.539)" fill="gray"/>
    <rect id="Rectangle_18" data-name="Rectangle 18" width="2.01" height="2.01" transform="translate(17.907 15.539)" fill="gray"/>
    <rect id="Rectangle_19" data-name="Rectangle 19" width="2.01" height="2.01" transform="translate(5.846 19.608)" fill="gray"/>
    <rect id="Rectangle_20" data-name="Rectangle 20" width="2.01" height="2.01" transform="translate(9.841 19.608)" fill="gray"/>
    <rect id="Rectangle_21" data-name="Rectangle 21" width="2.01" height="2.01" transform="translate(13.837 19.608)" fill="gray"/>
  </g>
</svg>
