<svg xmlns="http://www.w3.org/2000/svg" width="23.27" height="21.704" viewBox="0 0 23.27 21.704">
  <g id="noun_coding_1154254" transform="translate(-5.85 -8.85)">
    <g id="Group_6" data-name="Group 6" transform="translate(6 9)">
      <path id="Path_12" data-name="Path 12" d="M25.055,9H9.915A3.91,3.91,0,0,0,6,12.915V27.533A2.863,2.863,0,0,0,8.871,30.4H26.1a2.863,2.863,0,0,0,2.871-2.871V12.915A3.91,3.91,0,0,0,25.055,9ZM9.915,10.566H25.055A2.339,2.339,0,0,1,27.4,12.915v.861H7.566v-.861A2.339,2.339,0,0,1,9.915,10.566ZM26.1,28.838H8.871a1.292,1.292,0,0,1-1.305-1.305V15.343H27.4v12.19A1.292,1.292,0,0,1,26.1,28.838Z" transform="translate(-6 -9)" fill="#fff" stroke="#afafaf" stroke-width="0.3"/>
      <path id="Path_13" data-name="Path 13" d="M22.879,44.3l-3.915,3.132a.785.785,0,0,0-.131,1.1c.026.052.078.078.131.131l3.915,3.132.992-1.227-3.158-2.532,3.132-2.506Z" transform="translate(-15.361 -35.086)" fill="#fff" stroke="#afafaf" stroke-width="0.3"/>
      <path id="Path_14" data-name="Path 14" d="M61.692,44.3,60.7,45.527l3.158,2.532L60.7,50.591l.992,1.227,3.915-3.132a.785.785,0,0,0,.131-1.1c-.026-.052-.078-.078-.131-.131Z" transform="translate(-46.422 -35.086)" fill="#fff" stroke="#afafaf" stroke-width="0.3"/>
      <rect id="Rectangle_8" data-name="Rectangle 8" width="11.224" height="1.566" transform="translate(13.381 7.771) rotate(104.359)" fill="#fff" stroke="#afafaf" stroke-width="0.3"/>
    </g>
  </g>
</svg>
