<svg xmlns="http://www.w3.org/2000/svg" width="42" height="42" viewBox="0 0 42 42">
  <g id="Group_46" data-name="Group 46" transform="translate(-877 -563)">
    <circle id="Ellipse_5" data-name="Ellipse 5" cx="21" cy="21" r="21" transform="translate(877 563)" fill="#ffffff"/>
    <g id="noun_Trash_2368588" transform="translate(887.5 572)">
      <g id="Group_27" data-name="Group 27" transform="translate(0 0)">
        <g id="Group_26" data-name="Group 26">
          <path id="Path_58" data-name="Path 58" d="M8.75,14H7V25.375A2.633,2.633,0,0,0,9.625,28h10.5a2.633,2.633,0,0,0,2.625-2.625V14h-14Zm2.625,11.375v-8.75a.875.875,0,1,1,1.75,0v8.75a.875.875,0,0,1-1.75,0Zm5.25,0v-8.75a.875.875,0,1,1,1.75,0v8.75a.875.875,0,0,1-1.75,0Z" transform="translate(-4.375 -3.5)" fill="#656565"/>
          <path id="Path_59" data-name="Path 59" d="M22.375,5.5h-3.5V2.875A.878.878,0,0,0,18,2H11a.878.878,0,0,0-.875.875V5.5h-3.5a2.625,2.625,0,1,0,0,5.25h15.75a2.625,2.625,0,1,0,0-5.25Zm-10.5-1.75h5.25V5.5h-5.25Z" transform="translate(-4 -2)" fill="#656565"/>
        </g>
      </g>
    </g>
  </g>
</svg>
