<svg xmlns="http://www.w3.org/2000/svg" width="17.91" height="19.948" viewBox="0 0 17.91 19.948">
  <g id="noun_Lock_3987238" transform="translate(-4.375 -3.052)">
    <path id="Path_1" data-name="Path 1" d="M20.068,9.953h-.275V6.424a3.375,3.375,0,0,0-3.372-3.372H10.237a3.375,3.375,0,0,0-3.37,3.372v3.53H6.591a2.215,2.215,0,0,0-2.216,2.215v8.617A2.215,2.215,0,0,0,6.591,23H20.068a2.216,2.216,0,0,0,2.216-2.215V12.169A2.216,2.216,0,0,0,20.068,9.953ZM13.33,18.846A2.369,2.369,0,1,1,15.7,16.477,2.369,2.369,0,0,1,13.33,18.846Zm4.153-8.893H9.177V6.424a1.061,1.061,0,0,1,1.059-1.061h6.185a1.062,1.062,0,0,1,1.061,1.061v3.53Z" fill="#fff"/>
  </g>
</svg>
