<svg id="noun_logout_1350687" xmlns="http://www.w3.org/2000/svg" width="22.97" height="25.966" viewBox="0 0 22.97 25.966">
  <g id="Group_16" data-name="Group 16" transform="translate(0 0)">
    <g id="Group_15" data-name="Group 15">
      <path id="Path_46" data-name="Path 46" d="M22.164.807a1,1,0,0,0-1.412,1.412,10.986,10.986,0,1,1-15.536,0A1,1,0,1,0,3.8.807a12.983,12.983,0,1,0,18.361,0ZM13.841,15.384l5.823-5.9a1,1,0,1,0-1.409-1.412L14.33,12.011c-.193.193-.35.127-.35-.149V1a1,1,0,1,0-1.993,0v10.86c0,.275-.157.343-.35.149L7.712,8.074A1,1,0,1,0,6.3,9.486l5.785,5.89A1.226,1.226,0,0,0,13.841,15.384Z" transform="translate(22.97) rotate(90)" fill="#fff" fill-rule="evenodd"/>
    </g>
  </g>
</svg>
