<svg xmlns="http://www.w3.org/2000/svg" width="23.27" height="23.13" viewBox="0 0 23.27 23.13">
  <g id="noun_notification_430305" transform="translate(-8.95 -9.2)">
    <g id="Group_8" data-name="Group 8" transform="translate(9.1 9.35)">
      <g id="Group_7" data-name="Group 7" transform="translate(0 0)">
        <path id="Path_15" data-name="Path 15" d="M20.747,12.732a.823.823,0,0,0-.6-.253H11.528A2.146,2.146,0,0,0,9.1,14.907V29.753a2.146,2.146,0,0,0,2.428,2.428H26.359a2.146,2.146,0,0,0,2.428-2.428V21.46a.8.8,0,0,0-.239-.589.823.823,0,0,0-.6-.253.863.863,0,0,0-.842.842v8.293a.657.657,0,0,1-.744.744H11.528a.657.657,0,0,1-.744-.744V14.907a.657.657,0,0,1,.744-.744h8.616a.816.816,0,0,0,.842-.842.8.8,0,0,0-.239-.589m11.324,1.3A4.671,4.671,0,0,0,27.384,9.35a4.438,4.438,0,0,0-3.3,1.375v-.014a4.385,4.385,0,0,0-1.333,2.582v.014a4.792,4.792,0,0,0-.056.73,4.553,4.553,0,0,0,1.389,3.34,4.485,4.485,0,0,0,3.3,1.347q.309,0,.589-.028a4.531,4.531,0,0,0,2.736-1.319v-.014a4.554,4.554,0,0,0,1.361-3.326m-2.554-2.119a2.884,2.884,0,0,1,.87,2.119,2.977,2.977,0,0,1-.87,2.147,2.84,2.84,0,0,1-1.74.842h-.014q-.182.014-.379.014a2.861,2.861,0,0,1-2.1-.856,2.93,2.93,0,0,1-.9-2.147,3.068,3.068,0,0,1,.042-.505v.014a2.865,2.865,0,0,1,.842-1.628l.014-.014a2.837,2.837,0,0,1,2.1-.87A2.907,2.907,0,0,1,29.517,11.918Z" transform="translate(-9.1 -9.35)" fill="#fff" stroke="#fff" stroke-width="0.3"/>
      </g>
    </g>
  </g>
</svg>
