<svg xmlns="http://www.w3.org/2000/svg" width="166" height="166" viewBox="0 0 166 166">
  <g id="Group_44" data-name="Group 44" transform="translate(-738 -1842)">
    <g id="Ellipse_83" data-name="Ellipse 83" transform="translate(738 1842)" stroke="#4bff00" stroke-width="1" stroke-dasharray="10">
      <circle cx="83" cy="83" r="83" stroke="none"/>
      <circle cx="83" cy="83" r="82.5" fill="none"/>
    </g>
    <g id="noun_Camera_1903011" transform="translate(771 1874.615)">
      <g id="Group_31" data-name="Group 31">
        <path id="Path_64" data-name="Path 64" d="M21.6,56.9A21.5,21.5,0,1,0,43.1,35.4,21.467,21.467,0,0,0,21.6,56.9Zm17.7-7.7A5.335,5.335,0,0,0,34,54.5a2.6,2.6,0,0,1-5.2,0A10.392,10.392,0,0,1,39.2,44.1a2.582,2.582,0,0,1,2.6,2.6A2.54,2.54,0,0,1,39.3,49.2Z" fill="#4bff00"/>
        <path id="Path_65" data-name="Path 65" d="M81.2,47.2a4.118,4.118,0,0,0-4.1,4.1V85a.472.472,0,0,1-.5.5H9.6a.472.472,0,0,1-.5-.5V28.8a.472.472,0,0,1,.5-.5H54.5a4.1,4.1,0,0,0,0-8.2H31v-3a4.375,4.375,0,0,0-4.4-4.4H17.9a4.439,4.439,0,0,0-4.4,4.4v3H9.6A8.751,8.751,0,0,0,1,28.8V85a8.664,8.664,0,0,0,8.6,8.6H76.7A8.664,8.664,0,0,0,85.3,85V51.3A4.055,4.055,0,0,0,81.2,47.2Z" fill="#4bff00"/>
        <path id="Path_66" data-name="Path 66" d="M97.9,21.4A4.107,4.107,0,0,0,95,20.1H85.3V10.6a4.16,4.16,0,0,0-3.8-4.2,3.767,3.767,0,0,0-3,1.1,4.107,4.107,0,0,0-1.3,2.9v9.7H67.5a4.1,4.1,0,0,0,0,8.2h9.7V38a4.1,4.1,0,0,0,8.2,0V28.3h9.5a4.16,4.16,0,0,0,4.2-3.8A4.3,4.3,0,0,0,97.9,21.4Z" fill="#4bff00"/>
      </g>
    </g>
  </g>
</svg>
