<svg width="166" height="166" viewBox="0 0 166 166" fill="none" xmlns="http://www.w3.org/2000/svg">
<g clip-path="url(#clip0_401_12)">
<path d="M83 166C128.84 166 166 128.84 166 83C166 37.1604 128.84 0 83 0C37.1604 0 0 37.1604 0 83C0 128.84 37.1604 166 83 166Z" fill="black"/>
<path d="M54.6001 89.5149C54.6001 93.7672 55.8611 97.924 58.2235 101.46C60.586 104.995 63.9438 107.751 67.8724 109.378C71.801 111.006 76.124 111.431 80.2946 110.602C84.4652 109.772 88.2961 107.725 91.3029 104.718C94.3097 101.711 96.3574 97.8799 97.187 93.7094C98.0166 89.5388 97.5908 85.2158 95.9635 81.2872C94.3362 77.3586 91.5805 74.0008 88.0449 71.6383C84.5092 69.2759 80.3524 68.0149 76.1001 68.0149C73.2755 68.0106 70.4778 68.5637 67.8673 69.6427C65.2568 70.7216 62.885 72.3051 60.8876 74.3024C58.8903 76.2998 57.3068 78.6716 56.2279 81.2821C55.1489 83.8925 54.5958 86.6903 54.6001 89.5149ZM72.3001 81.8149C70.8973 81.8241 69.5546 82.3854 68.5626 83.3774C67.5706 84.3693 67.0093 85.7121 67.0001 87.1149C67.0001 87.8045 66.7262 88.4658 66.2386 88.9534C65.751 89.441 65.0897 89.7149 64.4001 89.7149C63.7106 89.7149 63.0492 89.441 62.5616 88.9534C62.074 88.4658 61.8001 87.8045 61.8001 87.1149C61.7991 85.7489 62.0674 84.396 62.5896 83.1338C63.1119 81.8715 63.8779 80.7246 64.8439 79.7587C65.8098 78.7927 66.9567 78.0267 68.219 77.5044C69.4812 76.9822 70.8341 76.7139 72.2001 76.7149C72.5422 76.7125 72.8814 76.7781 73.1979 76.908C73.5145 77.0378 73.802 77.2292 74.0439 77.4711C74.2858 77.713 74.4773 78.0006 74.6071 78.3171C74.7369 78.6336 74.8025 78.9728 74.8001 79.3149C74.7898 79.9747 74.5231 80.6047 74.0565 81.0713C73.5899 81.5379 72.9599 81.8046 72.3001 81.8149Z" fill="#4BFF00"/>
<path d="M114.2 79.815C113.114 79.8198 112.074 80.2532 111.306 81.0211C110.538 81.789 110.105 82.8291 110.1 83.915V117.615C110.104 117.682 110.094 117.749 110.07 117.811C110.047 117.874 110.01 117.93 109.963 117.978C109.915 118.025 109.859 118.062 109.796 118.085C109.734 118.109 109.667 118.119 109.6 118.115H42.6C42.5333 118.119 42.4664 118.109 42.4039 118.085C42.3414 118.062 42.2846 118.025 42.2374 117.978C42.1901 117.93 42.1534 117.874 42.1297 117.811C42.106 117.749 42.0959 117.682 42.1 117.615V61.415C42.0959 61.3483 42.106 61.2815 42.1297 61.2189C42.1534 61.1564 42.1901 61.0996 42.2374 61.0524C42.2846 61.0051 42.3414 60.9684 42.4039 60.9447C42.4664 60.9211 42.5333 60.9109 42.6 60.915H87.5C88.5874 60.915 89.6302 60.4831 90.3991 59.7142C91.168 58.9453 91.6 57.9024 91.6 56.815C91.6 55.7276 91.168 54.6848 90.3991 53.9159C89.6302 53.147 88.5874 52.715 87.5 52.715H64V49.715C64.0033 49.1363 63.8918 48.5626 63.6718 48.0273C63.4519 47.492 63.1279 47.0056 62.7187 46.5963C62.3094 46.1871 61.8231 45.8631 61.2877 45.6432C60.7524 45.4232 60.1787 45.3117 59.6 45.315H50.9C49.7362 45.3252 48.6229 45.792 47.8 46.615C46.977 47.438 46.5102 48.5512 46.5 49.715V52.715H42.6C40.3142 52.7544 38.1345 53.6868 36.5273 55.3127C34.9201 56.9386 34.013 59.1289 34 61.415V117.615C34.0167 119.891 34.9282 122.068 36.5374 123.678C38.1466 125.287 40.3243 126.198 42.6 126.215H109.7C111.976 126.198 114.153 125.287 115.763 123.678C117.372 122.068 118.283 119.891 118.3 117.615V83.915C118.306 83.3749 118.204 82.8391 118 82.3389C117.796 81.8388 117.494 81.3844 117.113 81.0024C116.731 80.6205 116.276 80.3187 115.776 80.1148C115.276 79.9109 114.74 79.809 114.2 79.815Z" fill="#4BFF00"/>
<path d="M130.9 54.015C130.527 53.6165 130.079 53.2963 129.581 53.0731C129.083 52.8499 128.545 52.7281 128 52.715H118.3V43.215C118.314 42.1644 117.93 41.1475 117.225 40.3684C116.52 39.5893 115.547 39.1058 114.5 39.015C113.95 38.9672 113.396 39.041 112.877 39.2311C112.359 39.4212 111.889 39.7229 111.5 40.115C111.101 40.4877 110.781 40.9362 110.558 41.4341C110.335 41.932 110.213 42.4694 110.2 43.015V52.715H100.5C99.4125 52.715 98.3697 53.1469 97.6008 53.9158C96.8319 54.6847 96.3999 55.7276 96.3999 56.815C96.3999 57.9023 96.8319 58.9452 97.6008 59.7141C98.3697 60.483 99.4125 60.915 100.5 60.915H110.2V70.615C110.2 71.7023 110.632 72.7452 111.401 73.5141C112.17 74.283 113.213 74.715 114.3 74.715C115.387 74.715 116.43 74.283 117.199 73.5141C117.968 72.7452 118.4 71.7023 118.4 70.615V60.915H127.9C128.95 60.929 129.967 60.545 130.746 59.8401C131.526 59.1352 132.009 58.1617 132.1 57.115C132.116 56.5445 132.018 55.9765 131.812 55.4443C131.606 54.9121 131.296 54.4262 130.9 54.015Z" fill="#4BFF00"/>
</g>
<defs>
<clipPath id="clip0_401_12">
<rect width="166" height="166" fill="white"/>
</clipPath>
</defs>
</svg>
