<svg xmlns="http://www.w3.org/2000/svg" width="92" height="77" viewBox="0 0 92 77">
  <g id="Group_45" data-name="Group 45" transform="translate(-342 -810)">
    <g id="Rectangle_329" data-name="Rectangle 329" transform="translate(342 810)" stroke="#4bff00" stroke-width="1">
      <rect width="92" height="77" rx="4" stroke="none"/>
      <rect x="0.5" y="0.5" width="91" height="76" rx="3.5" fill="none"/>
    </g>
    <g id="noun_confirm_2951102" transform="translate(316.601 824)">
      <g id="Group_42" data-name="Group 42" transform="translate(49.4 4)">
        <path id="Path_110" data-name="Path 110" d="M85.44,37.153a2.9,2.9,0,0,1-2.887,2.887H58.247a2.9,2.9,0,0,1-2.887-2.887V12.847A2.9,2.9,0,0,1,58.247,9.96H77.431a51.051,51.051,0,0,1,8.1-5.4A8.066,8.066,0,0,0,82.553,4H58.247A8.843,8.843,0,0,0,49.4,12.847V37.153A8.843,8.843,0,0,0,58.247,46H82.553A8.843,8.843,0,0,0,91.4,37.153V18.528a56.208,56.208,0,0,0-5.96,6.612Z" transform="translate(-49.4 -4)" fill="#4bff00"/>
        <path id="Path_111" data-name="Path 111" d="M93.158,7.295C86.918,9.343,79.1,14.745,71.832,24.057l-4.284-4.749a1.694,1.694,0,0,0-2.514,0l-3.166,3.539a1.63,1.63,0,0,0,.093,2.328l9.778,9.313a1.777,1.777,0,0,0,2.7-.373c5.122-9.406,10.71-16.39,20.115-24.4A1.43,1.43,0,0,0,93.158,7.295Z" transform="translate(-50.226 -4.221)" fill="#4bff00"/>
      </g>
    </g>
  </g>
</svg>
