<svg xmlns="http://www.w3.org/2000/svg" width="18.591" height="21.39" viewBox="0 0 18.591 21.39">
  <g id="noun_User_415727" transform="translate(-16.053 -12.323)">
    <g id="Group_1" data-name="Group 1" transform="translate(16.053 12.323)">
      <path id="Path_2" data-name="Path 2" d="M34.569,61.041A7.485,7.485,0,0,0,27.228,54.9H23.489a7.5,7.5,0,0,0-7.4,6.3h0A2.985,2.985,0,0,0,19.04,64.67H31.649A3,3,0,0,0,34.6,61.15Z" transform="translate(-16.053 -43.28)" fill="#fff"/>
      <path id="Path_3" data-name="Path 3" d="M32.158,21.023a5.553,5.553,0,0,0,7.751.109l.055-.055a4.943,4.943,0,0,0,.409-6.741h0a5.56,5.56,0,0,0-8.651.109h0A4.96,4.96,0,0,0,32.131,21Z" transform="translate(-26.687 -12.323)" fill="#fff"/>
    </g>
  </g>
</svg>
