<svg width="25" height="17" viewBox="0 0 25 17" fill="none" xmlns="http://www.w3.org/2000/svg">
<path d="M24.849 7.8536C22.4952 3.1693 17.8355 0 12.5 0C7.1645 0 2.5035 3.1716 0.151 7.8541C0.0517 8.0544 0 8.2757 0 8.5002C0 8.7247 0.0517 8.946 0.151 9.1464C2.5048 13.8307 7.1645 17 12.5 17C17.8355 17 22.4965 13.8284 24.849 9.1459C24.9483 8.9456 25 8.7243 25 8.4998C25 8.2753 24.9483 8.054 24.849 7.8536ZM12.5 14.875C11.2639 14.875 10.0555 14.5011 9.0277 13.8006C7.9999 13.1001 7.1988 12.1045 6.7257 10.9396C6.2527 9.7747 6.1289 8.4929 6.3701 7.2563C6.6112 6.0197 7.2065 4.8838 8.0806 3.9922C8.9547 3.1006 10.0683 2.4935 11.2807 2.2475C12.4931 2.0015 13.7497 2.1278 14.8918 2.6103C16.0338 3.0928 17.0099 3.9099 17.6967 4.9582C18.3835 6.0066 18.75 7.2391 18.75 8.5C18.7504 9.3373 18.589 10.1665 18.2751 10.9401C17.9611 11.7137 17.5008 12.4167 16.9203 13.0087C16.3399 13.6008 15.6507 14.0703 14.8922 14.3906C14.1338 14.7108 13.3209 14.8754 12.5 14.875ZM12.5 4.25C12.1281 4.2553 11.7586 4.3117 11.4015 4.4178C11.6958 4.8258 11.8371 5.3279 11.7996 5.8331C11.7622 6.3383 11.5485 6.813 11.1973 7.1712C10.8461 7.5294 10.3806 7.7474 9.8854 7.7856C9.3901 7.8238 8.8979 7.6798 8.4978 7.3795C8.27 8.2355 8.3111 9.1428 8.6154 9.9738C8.9196 10.8047 9.4717 11.5174 10.1938 12.0115C10.916 12.5057 11.7719 12.7564 12.641 12.7284C13.5102 12.7004 14.3489 12.3951 15.039 11.8554C15.7291 11.3158 16.236 10.569 16.4882 9.7201C16.7404 8.8712 16.7253 7.9631 16.445 7.1234C16.1647 6.2838 15.6333 5.5549 14.9256 5.0395C14.2179 4.524 13.3696 4.2479 12.5 4.25Z" fill="#939393"/>
</svg>
