<svg width="50" height="50" viewBox="0 0 50 50" fill="none" xmlns="http://www.w3.org/2000/svg">
<g clip-path="url(#clip0_1350_46)">
<path d="M25 50C38.8071 50 50 38.8071 50 25C50 11.1929 38.8071 0 25 0C11.1929 0 0 11.1929 0 25C0 38.8071 11.1929 50 25 50Z" fill="white"/>
<path d="M36.849 24.8536C34.4952 20.1693 29.8355 17 24.5 17C19.1645 17 14.5035 20.1716 12.151 24.8541C12.0517 25.0544 12 25.2757 12 25.5002C12 25.7247 12.0517 25.946 12.151 26.1464C14.5048 30.8307 19.1645 34 24.5 34C29.8355 34 34.4965 30.8284 36.849 26.1459C36.9483 25.9456 37 25.7243 37 25.4998C37 25.2753 36.9483 25.054 36.849 24.8536ZM24.5 31.875C23.2639 31.875 22.0555 31.5011 21.0277 30.8006C19.9999 30.1001 19.1988 29.1045 18.7257 27.9396C18.2527 26.7747 18.1289 25.4929 18.3701 24.2563C18.6112 23.0197 19.2065 21.8838 20.0806 20.9922C20.9547 20.1006 22.0683 19.4935 23.2807 19.2475C24.4931 19.0015 25.7497 19.1278 26.8918 19.6103C28.0338 20.0928 29.0099 20.9099 29.6967 21.9582C30.3835 23.0066 30.75 24.2391 30.75 25.5C30.7504 26.3373 30.589 27.1665 30.2751 27.9401C29.9611 28.7137 29.5008 29.4167 28.9203 30.0087C28.3399 30.6008 27.6507 31.0703 26.8922 31.3906C26.1338 31.7108 25.3209 31.8754 24.5 31.875ZM24.5 21.25C24.1281 21.2553 23.7586 21.3117 23.4015 21.4178C23.6958 21.8258 23.8371 22.3279 23.7996 22.8331C23.7622 23.3383 23.5485 23.813 23.1973 24.1712C22.8461 24.5294 22.3806 24.7474 21.8854 24.7856C21.3901 24.8238 20.8979 24.6798 20.4978 24.3795C20.27 25.2355 20.3111 26.1428 20.6154 26.9738C20.9196 27.8047 21.4717 28.5174 22.1938 29.0115C22.916 29.5057 23.7719 29.7564 24.641 29.7284C25.5102 29.7004 26.3489 29.3951 27.039 28.8554C27.7291 28.3158 28.236 27.569 28.4882 26.7201C28.7404 25.8712 28.7253 24.9631 28.445 24.1234C28.1647 23.2838 27.6333 22.5549 26.9256 22.0395C26.2179 21.524 25.3696 21.2479 24.5 21.25Z" fill="#6F6F6F"/>
</g>
<defs>
<clipPath id="clip0_1350_46">
<rect width="50" height="50" fill="white"/>
</clipPath>
</defs>
</svg>
